<svg width="60" height="69" viewBox="0 0 60 69" fill="none" xmlns="http://www.w3.org/2000/svg">
<path d="M49.3105 11.4209L41.5165 6.91942L7.5239 26.533V20.4239L36.2176 3.85841L29.5297 0L0 17.0542V20.7325V24.7581V30.8802V39.8831V51.1497L3.34396 53.0789L7.5239 50.661V35.536L49.3105 11.4209Z" fill="#dab46e"/>
<path d="M49.3105 11.4209L41.5165 6.91942L7.5239 26.533V20.4239L36.2176 3.85841L29.5297 0L0 17.0542V20.7325V24.7581V30.8802V39.8831V51.1497L3.34396 53.0789L7.5239 50.661V35.536L49.3105 11.4209Z" fill="#dab46e"/>
<path d="M12.6816 38.687L46.3784 19.2278V28.2307L12.6816 47.69V38.687Z" fill="#dab46e"/>
<path d="M12.6816 38.687L46.3784 19.2278V28.2307L12.6816 47.69V38.687Z" fill="#dab46e"/>
<path d="M12.681 53.812L46.3779 34.3656V43.3557L16.4366 60.6543L12.681 58.4807L8.64258 56.1399L12.681 53.812Z" fill="#dab46e"/>
<path d="M12.681 53.812L46.3779 34.3656V43.3557L16.4366 60.6543L12.681 58.4807L8.64258 56.1399L12.681 53.812Z" fill="#dab46e"/>
<path d="M54.609 14.4819L51.5352 16.2568V25.2469V46.4939L21.7354 63.7024L29.5293 68.2039L59.0719 51.1497V47.3813V42.1596V20.8998V17.0542L54.609 14.4819Z" fill="#dab46e"/>
<path d="M54.609 14.4819L51.5352 16.2568V25.2469V46.4939L21.7354 63.7024L29.5293 68.2039L59.0719 51.1497V47.3813V42.1596V20.8998V17.0542L54.609 14.4819Z" fill="#dab46e"/>
</svg>
