<svg width="19" height="19" viewBox="0 0 19 19" fill="none" xmlns="http://www.w3.org/2000/svg">
<path d="M2.60858 12.436C2.91781 12.7451 3.41905 12.7451 3.72817 12.4358C4.03729 12.1266 4.03722 11.6254 3.72798 11.3162L1.91137 9.50026L4.6575 6.75413C6.3151 5.09652 8.66825 4.42113 10.9202 4.89561C11.348 4.98575 11.7679 4.712 11.858 4.28416C11.9482 3.85633 11.6744 3.43643 11.2466 3.34629C8.47636 2.76264 5.57793 3.59448 3.53787 5.63454L0.231869 8.94054C-0.0773267 9.24973 -0.0772896 9.75108 0.23198 10.0602L2.60858 12.436Z" fill="white"/>
<path d="M18.7687 8.93972L16.3921 6.56394C16.0829 6.25482 15.5816 6.2549 15.2725 6.56413C14.9634 6.87336 14.9635 7.3746 15.2727 7.68372L17.0893 9.49971L14.3432 12.2458C12.6856 13.9035 10.3324 14.5788 8.08052 14.1044C7.65269 14.0142 7.23279 14.288 7.14266 14.7158C7.05252 15.1436 7.32627 15.5635 7.75411 15.6537C10.5243 16.2373 13.4228 15.4055 15.4628 13.3654L18.7688 10.0594C19.078 9.75019 19.078 9.24885 18.7687 8.93972Z" fill="white"/>
<path d="M5.54199 9.50006C5.54199 9.93728 5.89642 10.2917 6.33365 10.2917C6.77087 10.2917 7.1253 9.93728 7.1253 9.50006C7.1253 8.1885 8.18875 7.12506 9.50031 7.12506C9.93753 7.12506 10.292 6.77063 10.292 6.3334C10.292 5.89618 9.93753 5.54175 9.50031 5.54175C7.3143 5.54171 5.54199 7.31402 5.54199 9.50006Z" fill="white"/>
<path d="M11.8752 9.50007C11.8752 10.8116 10.8117 11.8751 9.50015 11.8751C9.06293 11.8751 8.7085 12.2295 8.7085 12.6667C8.7085 13.1039 9.06293 13.4584 9.50015 13.4584C11.6862 13.4584 13.4585 11.6861 13.4585 9.50003C13.4585 9.06281 13.1041 8.70837 12.6668 8.70837C12.2296 8.70837 11.8752 9.06284 11.8752 9.50007Z" fill="white"/>
<path d="M18.7686 0.231869C18.4595 -0.0772896 17.9582 -0.0772896 17.649 0.231869L0.232357 17.6485C-0.0768014 17.9577 -0.0768014 18.459 0.232357 18.7681C0.541516 19.0773 1.04279 19.0773 1.35195 18.7681L18.7686 1.35146C19.0778 1.0423 19.0778 0.541027 18.7686 0.231869Z" fill="white"/>
</svg>
