<svg width="20" height="12" viewBox="0 0 20 12" fill="none" xmlns="http://www.w3.org/2000/svg">
<path d="M19.6944 5.17963L15.9669 2.12963C12.4957 -0.709869 7.50428 -0.709869 4.03318 2.12959L0.305601 5.17963C-0.1019 5.51307 -0.10186 6.13619 0.305679 6.46959L4.07486 9.55291C7.52178 12.3732 12.4782 12.3732 15.9252 9.55287L19.6943 6.46959C20.1019 6.13619 20.1019 5.51311 19.6944 5.17963ZM14.8698 8.26291C12.0367 10.581 7.96318 10.581 5.13017 8.26295L2.14931 5.82451L5.0885 3.41955C7.94565 1.08236 12.0542 1.08236 14.9115 3.41963L17.8506 5.82455L14.8698 8.26291Z" fill="white"/>
<path d="M9.99983 2.49133C8.15877 2.49133 6.6665 3.9836 6.6665 5.82466C6.6665 7.66571 8.15877 9.15798 9.99983 9.15798C11.8409 9.15798 13.3331 7.66571 13.3331 5.82466C13.3331 3.9836 11.8409 2.49133 9.99983 2.49133ZM9.99983 7.49134C9.07924 7.49134 8.33315 6.74528 8.33315 5.82466C8.33315 4.90403 9.0792 4.15797 9.99983 4.15797C10.9205 4.15797 11.6665 4.90403 11.6665 5.82466C11.6665 6.74528 10.9204 7.49134 9.99983 7.49134Z" fill="white"/>
</svg>
