<svg width="38" height="39" viewBox="0 0 38 39" fill="none" xmlns="http://www.w3.org/2000/svg">
<path d="M2.03013 19C2.03013 9.64279 9.64279 2.03013 19 2.03013C23.6787 2.03013 28.121 3.95267 31.3222 7.33295H30.4551C29.8945 7.33295 29.4401 7.78736 29.4401 8.34801C29.4401 8.90867 29.8945 9.36308 30.4551 9.36308H33.8976C34.4582 9.36308 34.9126 8.90867 34.9126 8.34801V4.90547C34.9126 4.34482 34.4582 3.89041 33.8976 3.89041C33.3369 3.89041 32.8825 4.34482 32.8825 4.90547V6.03005C29.2924 2.18814 24.2812 0 19 0C8.5234 0 0 8.5234 0 19C0 23.6205 1.67847 28.074 4.72603 31.5403C4.92668 31.7685 5.20695 31.8851 5.4888 31.8851C5.72666 31.8851 5.96577 31.8019 6.15852 31.6324C6.57954 31.2622 6.62082 30.6208 6.25055 30.1998C3.52905 27.1043 2.03013 23.1268 2.03013 19Z" fill="white"/>
<path d="M36.7901 12.3125C36.5927 11.7877 36.007 11.5223 35.4827 11.7197C34.958 11.9171 34.6925 12.5023 34.8899 13.0271C35.6069 14.9337 35.9705 16.9433 35.9705 19C35.9705 28.3572 28.3578 35.9697 19.0006 35.9697C16.293 35.9697 13.6046 35.3165 11.2169 34.0819L12.1343 33.7571C12.6627 33.5699 12.9393 32.9898 12.7522 32.4614C12.5651 31.9328 11.9844 31.6564 11.4565 31.8435L8.2116 32.9926C7.6832 33.1799 7.40654 33.7599 7.59365 34.2883L8.74281 37.5333C8.89034 37.9497 9.28159 38.2097 9.69957 38.2097C9.81202 38.2097 9.92649 38.1909 10.0385 38.1512C10.5669 37.964 10.8435 37.3839 10.6564 36.8555L10.3189 35.9025C12.9852 37.274 15.9826 37.9998 19.0006 37.9998C29.4773 37.9998 38.0006 29.4766 38.0006 19C38.0006 16.6985 37.5933 14.4484 36.7901 12.3125Z" fill="white"/>
<path d="M19.0001 6.35779C12.1053 6.35779 6.49609 11.967 6.49609 18.8618C6.49609 25.7565 12.1053 31.3659 19.0001 31.3659C25.8949 31.3659 31.5042 25.7566 31.5042 18.8618C31.5043 11.967 25.8949 6.35779 19.0001 6.35779ZM28.5995 19.8769H29.4247C28.9448 24.8436 24.9819 28.8065 20.0152 29.2864V28.4612C20.0152 27.9005 19.5608 27.4461 19.0001 27.4461C18.4395 27.4461 17.9851 27.9005 17.9851 28.4612V29.2864C13.0183 28.8065 9.05541 24.8436 8.57551 19.877H9.40076C9.96142 19.877 10.4158 19.4226 10.4158 18.8619C10.4158 18.3013 9.96142 17.8469 9.40076 17.8469H8.57551C9.05541 12.8802 13.0183 8.91722 17.9851 8.43732V9.26257C17.9851 9.82322 18.4395 10.2776 19.0001 10.2776C19.5608 10.2776 20.0152 9.82322 20.0152 9.26257V8.43732C24.9819 8.91722 28.9448 12.8801 29.4247 17.8468H28.5995C28.0388 17.8468 27.5844 18.3012 27.5844 18.8618C27.5844 19.4225 28.0388 19.8769 28.5995 19.8769Z" fill="white"/>
<path d="M23.5641 18.8673H22.8532H20.0145V14.814V13.3646C20.0145 12.8039 19.5601 12.3495 18.9994 12.3495C18.4388 12.3495 17.9844 12.8039 17.9844 13.3646V19.8824C17.9844 20.4431 18.4388 20.8975 18.9994 20.8975H23.5641C24.1247 20.8975 24.5791 20.4431 24.5791 19.8824C24.5791 19.3217 24.1247 18.8673 23.5641 18.8673Z" fill="white"/>
</svg>
