<svg width="110" height="115" viewBox="0 0 110 115" fill="none" xmlns="http://www.w3.org/2000/svg">
<path d="M57.5017 26.9017C64.9306 26.9017 70.953 20.8796 70.953 13.4509C70.953 6.02215 64.9306 0 57.5017 0C50.0727 0 44.0503 6.02215 44.0503 13.4509C44.0503 20.8796 50.0727 26.9017 57.5017 26.9017Z" fill="#DAB46E"/>
<path d="M57.5021 115C61.959 115 65.572 111.387 65.572 106.93C65.572 102.473 61.959 98.8604 57.5021 98.8604C53.0452 98.8604 49.4321 102.473 49.4321 106.93C49.4321 111.387 53.0452 115 57.5021 115Z" fill="#DAB46E"/>
<path d="M24.4509 39.2436C31.1374 39.2436 36.558 33.8232 36.558 27.1369C36.558 20.4506 31.1374 15.0303 24.4509 15.0303C17.7643 15.0303 12.3438 20.4506 12.3438 27.1369C12.3438 33.8232 17.7643 39.2436 24.4509 39.2436Z" fill="#DAB46E"/>
<path d="M90.5543 99.9606C94.2688 99.9606 97.28 96.9495 97.28 93.2352C97.28 89.5208 94.2688 86.5098 90.5543 86.5098C86.8398 86.5098 83.8286 89.5208 83.8286 93.2352C83.8286 96.9495 86.8398 99.9606 90.5543 99.9606Z" fill="#DAB46E"/>
<path d="M10.7585 70.9507C16.7002 70.9507 21.5169 66.1341 21.5169 60.1926C21.5169 54.2511 16.7002 49.4346 10.7585 49.4346C4.81673 49.4346 0 54.2511 0 60.1926C0 66.1341 4.81673 70.9507 10.7585 70.9507Z" fill="#DAB46E"/>
<path d="M104.242 65.5652C107.211 65.5652 109.619 63.1579 109.619 60.1884C109.619 57.2188 107.211 54.8115 104.242 54.8115C101.272 54.8115 98.8647 57.2188 98.8647 60.1884C98.8647 63.1579 101.272 65.5652 104.242 65.5652Z" fill="#DAB46E"/>
<path d="M17.7936 86.5882C14.1144 90.2674 14.1144 96.2203 17.7936 99.8994C21.4685 103.579 27.4304 103.579 31.1053 99.8994C34.7846 96.2203 34.7846 90.2674 31.1053 86.5882C27.4304 82.9047 21.4729 82.8698 17.7936 86.5882Z" fill="#DAB46E"/>
<path d="M90.5504 31.1698C92.7776 31.1698 94.5832 29.3643 94.5832 27.1371C94.5832 24.91 92.7776 23.1045 90.5504 23.1045C88.3231 23.1045 86.5176 24.91 86.5176 27.1371C86.5176 29.3643 88.3231 31.1698 90.5504 31.1698Z" fill="#DAB46E"/>
</svg>
