<svg width="15" height="15" viewBox="0 0 15 15" fill="none" xmlns="http://www.w3.org/2000/svg">
<path fill-rule="evenodd" clip-rule="evenodd" d="M1.94953 7.19976C1.94953 10.4169 4.23681 12.6089 6.80599 13.0623C6.87588 13.0747 6.94269 13.1009 7.00263 13.1396C7.06256 13.1783 7.11443 13.2286 7.15528 13.2878C7.19614 13.3469 7.22517 13.4137 7.24072 13.4842C7.25627 13.5548 7.25805 13.6278 7.24593 13.6991C7.23382 13.7703 7.20806 13.8385 7.17013 13.8996C7.13219 13.9607 7.08282 14.0136 7.02484 14.0553C6.96686 14.0969 6.9014 14.1265 6.83219 14.1424C6.76299 14.1583 6.6914 14.1601 6.62152 14.1477C3.60463 13.6151 0.869629 11.0215 0.869629 7.19976C0.869629 5.57532 1.59406 4.29861 2.43974 3.32839C3.04602 2.63296 3.73935 2.06752 4.29692 1.63525H2.60141C2.46398 1.63525 2.33218 1.57958 2.235 1.48048C2.13782 1.38138 2.08323 1.24696 2.08323 1.10681C2.08323 0.96666 2.13782 0.832249 2.235 0.733147C2.33218 0.634044 2.46398 0.578369 2.60141 0.578369H5.71054C5.84797 0.578369 5.97978 0.634044 6.07696 0.733147C6.17414 0.832249 6.22873 0.96666 6.22873 1.10681V4.27747C6.22873 4.41762 6.17414 4.55203 6.07696 4.65113C5.97978 4.75024 5.84797 4.80591 5.71054 4.80591C5.57311 4.80591 5.44131 4.75024 5.34413 4.65113C5.24695 4.55203 5.19235 4.41762 5.19235 4.27747V2.32646L5.19132 2.32857C4.59851 2.78303 3.87512 3.34001 3.24811 4.05975C2.5071 4.90949 1.94953 5.93678 1.94953 7.1987V7.19976ZM13.4616 7.62885C13.4616 4.44551 11.223 2.26727 8.68701 1.78111C8.61633 1.76888 8.54875 1.74241 8.4882 1.70326C8.42765 1.66411 8.37536 1.61306 8.33436 1.55308C8.29337 1.4931 8.2645 1.42539 8.24944 1.35391C8.23438 1.28243 8.23342 1.20861 8.24663 1.13675C8.25985 1.06489 8.28696 0.996435 8.32639 0.935375C8.36582 0.874316 8.41678 0.821875 8.4763 0.781113C8.53581 0.740351 8.60269 0.712084 8.67303 0.697961C8.74338 0.683838 8.81577 0.684141 8.886 0.698854C11.8645 1.26957 14.5415 3.84837 14.5415 7.62885C14.5415 9.25329 13.8171 10.5289 12.9714 11.5002C12.3651 12.1957 11.6718 12.7611 11.1142 13.1934H12.8097C12.9472 13.1934 13.079 13.249 13.1761 13.3481C13.2733 13.4472 13.3279 13.5816 13.3279 13.7218C13.3279 13.862 13.2733 13.9964 13.1761 14.0955C13.079 14.1946 12.9472 14.2502 12.8097 14.2502H9.70059C9.56316 14.2502 9.43135 14.1946 9.33418 14.0955C9.237 13.9964 9.1824 13.862 9.1824 13.7218V10.5511C9.1824 10.411 9.237 10.2766 9.33418 10.1775C9.43135 10.0784 9.56316 10.0227 9.70059 10.0227C9.83802 10.0227 9.96983 10.0784 10.067 10.1775C10.1642 10.2766 10.2188 10.411 10.2188 10.5511V12.5011H10.2208C10.8126 12.0445 11.537 11.4886 12.163 10.7678C12.904 9.91913 13.4616 8.89183 13.4616 7.62885Z" fill="#DAB46E"/>
</svg>
