<svg width="18" height="25" viewBox="0 0 18 25" fill="none" xmlns="http://www.w3.org/2000/svg">
<path d="M8.74058 13.8202C7.51923 13.8202 6.52563 14.8138 6.52563 16.0352C6.52563 16.652 6.77711 17.2292 7.22188 17.6471V20.9265C7.22188 21.1451 7.3991 21.3223 7.61769 21.3223H9.86336C10.082 21.3223 10.2592 21.1451 10.2592 20.9265V17.6471C10.704 17.2293 10.9555 16.652 10.9555 16.0352C10.9556 14.8138 9.96192 13.8202 8.74058 13.8202ZM9.61889 17.1546C9.52335 17.2296 9.46764 17.3444 9.46764 17.4658V20.5306H8.01361V17.4658C8.01361 17.3444 7.95781 17.2296 7.86237 17.1546C7.51597 16.8824 7.31732 16.4744 7.31732 16.0351C7.31737 15.2504 7.95589 14.6118 8.74063 14.6118C9.52541 14.6118 10.1639 15.2504 10.1639 16.0351C10.1639 16.4743 9.96523 16.8823 9.61889 17.1546Z" fill="white"/>
<path d="M15.7979 9.64695V7.05724C15.7979 3.16588 12.6321 0 8.74075 0C4.84944 0 1.68346 3.16588 1.68346 7.05728V9.647C0.739433 9.74197 0 10.5411 0 11.5098V12.5032C0 12.7218 0.177224 12.899 0.395818 12.899C0.614412 12.899 0.791637 12.7218 0.791637 12.5032V11.5098C0.791637 10.9139 1.27638 10.4292 1.87219 10.4292H15.6091C16.2049 10.4292 16.6897 10.9139 16.6897 11.5098V19.6111C16.6897 19.8297 16.8669 20.0069 17.0855 20.0069C17.3041 20.0069 17.4813 19.8297 17.4813 19.6111V11.5097C17.4814 10.5411 16.742 9.74197 15.7979 9.64695ZM5.64179 9.63746V7.05728C5.64179 5.34856 7.03197 3.95833 8.74075 3.95833C10.4495 3.95833 11.8397 5.34851 11.8397 7.05728V9.63746H5.64179ZM15.0063 9.63746H12.6313V7.05728C12.6313 4.91204 10.886 3.16669 8.74075 3.16669C6.5955 3.16669 4.85015 4.91199 4.85015 7.05728V9.63746H2.47515V7.05728C2.47515 3.60239 5.28586 0.791685 8.74075 0.791685C12.1956 0.791685 15.0063 3.60239 15.0063 7.05728V9.63746V9.63746Z" fill="white"/>
<path d="M17.0855 20.7985C16.8669 20.7985 16.6897 20.9758 16.6897 21.1943V22.6716C16.6897 23.2674 16.205 23.7522 15.6091 23.7522H1.87219C1.27633 23.7522 0.791637 23.2674 0.791637 22.6716V14.0865C0.791637 13.8679 0.614412 13.6907 0.395818 13.6907C0.177224 13.6907 0 13.8679 0 14.0865V22.6716C0 23.704 0.83991 24.5439 1.87224 24.5439H15.6091C16.6415 24.5439 17.4814 23.704 17.4814 22.6716V21.1944C17.4813 20.9758 17.3041 20.7985 17.0855 20.7985Z" fill="white"/>
</svg>
