<svg width="21" height="19" viewBox="0 0 21 19" fill="none" xmlns="http://www.w3.org/2000/svg">
<path d="M20.814 16.8868L11.6909 0.703296C11.1621 -0.234432 9.83791 -0.234432 9.30909 0.703296L0.18596 16.8868C-0.342855 17.8245 0.319238 19 1.37687 19H19.6231C20.6808 19 21.3429 17.8245 20.814 16.8868ZM10.5129 5.6869C11.0976 5.6869 11.5705 6.18438 11.5533 6.78312L11.3814 12.929C11.3685 13.4133 10.9815 13.7963 10.5086 13.7963C10.0357 13.7963 9.64874 13.4089 9.63584 12.929L9.46817 6.78312C9.45527 6.18438 9.92389 5.6869 10.5129 5.6869ZM10.5 16.8032C9.9024 16.8032 9.41657 16.3057 9.41657 15.6937C9.41657 15.0818 9.9024 14.5843 10.5 14.5843C11.0976 14.5843 11.5834 15.0818 11.5834 15.6937C11.5834 16.3057 11.0976 16.8032 10.5 16.8032Z" fill="white"/>
</svg>
