<svg width="221" height="194" viewBox="0 0 221 194" fill="none" xmlns="http://www.w3.org/2000/svg">
<path d="M17.9711 0C14.4974 3.72875 10.9655 7.39934 7.42618 11.0625L4.76385 13.8009L3.43045 15.1671L2.76226 15.8487L2.59521 16.0187L2.44606 16.1798C2.34911 16.2902 2.25366 16.4005 2.16715 16.5184C1.4557 17.4506 1.07537 18.6154 1.09178 19.7848L1.11415 23.6045L1.15591 74.1608L1.18574 124.717L1.18723 126.626L1.18873 127.579C1.19022 127.864 1.21707 128.151 1.26479 128.431C1.35876 128.993 1.55414 129.539 1.83007 130.039C1.96729 130.289 2.12539 130.527 2.30437 130.75C2.48484 130.979 2.6683 131.166 2.90544 131.401L8.31213 136.797L11.0162 139.495L12.3675 140.845C12.4824 140.96 12.5898 141.064 12.7091 141.188L12.891 141.38L13.064 141.58C13.2878 141.852 13.4891 142.142 13.6666 142.447C14.0231 143.055 14.2677 143.726 14.4064 144.417C14.475 144.763 14.5108 145.115 14.5198 145.467C14.5257 145.65 14.5227 145.797 14.5242 145.959V146.436L14.5287 150.256L14.5436 165.535L14.5451 167.444V167.921V168.16V168.279L14.5481 168.385C14.5541 168.669 14.5809 168.951 14.6361 169.228C14.7435 169.783 14.9389 170.323 15.2237 170.811C15.3654 171.055 15.525 171.289 15.704 171.509C15.7965 171.616 15.8875 171.723 15.9874 171.823C16.0321 171.872 16.0918 171.931 16.1485 171.987L16.317 172.156L21.7237 177.552L32.5326 188.351L33.8839 189.7L34.5595 190.376C34.7833 190.597 35.0189 190.841 35.2158 191.019C35.6364 191.393 36.1197 191.699 36.6387 191.917C37.1592 192.13 37.7141 192.267 38.2764 192.299C38.3465 192.306 38.4166 192.305 38.4867 192.307L38.5926 192.31H38.7119H39.1892H40.1437L42.0528 192.309L45.8726 192.307L56.9868 192.282L87.5431 192.285L95.1826 192.288H97.0917H98.0463H98.5236H98.6429L98.7473 192.285C98.8174 192.282 98.8875 192.284 98.9576 192.276C99.5184 192.245 100.07 192.109 100.588 191.896C101.104 191.678 101.586 191.375 102.003 191.002L112.79 180.235L115.491 177.536L115.659 177.367C115.715 177.312 115.771 177.255 115.838 177.191C115.965 177.066 116.101 176.951 116.237 176.836C116.513 176.611 116.808 176.411 117.117 176.235C117.734 175.88 118.413 175.637 119.112 175.506C119.461 175.439 119.818 175.404 120.173 175.4C120.265 175.397 120.344 175.397 120.423 175.397H120.662H121.139H123.048L126.868 175.398L142.147 175.403L152.703 175.421L163.818 175.48L179.096 175.495L186.736 175.503L190.556 175.506L192.465 175.507H192.703L192.966 175.513C193.14 175.522 193.315 175.534 193.488 175.558C193.834 175.603 194.179 175.673 194.513 175.774C195.181 175.979 195.818 176.289 196.383 176.7C196.665 176.905 196.933 177.137 197.175 177.379L197.849 178.055L200.547 180.759L205.935 186.155C206.764 186.956 207.866 187.468 209.019 187.597L209.235 187.618L209.453 187.629L209.926 187.639L210.88 187.661L212.789 187.715C215.335 187.802 217.883 187.915 220.429 188.128C217.883 188.342 215.335 188.456 212.789 188.541L210.88 188.595L209.926 188.618C209.765 188.62 209.613 188.625 209.444 188.625L209.185 188.622L208.925 188.607C207.542 188.503 206.194 187.909 205.184 186.946L199.763 181.543L197.059 178.845L196.383 178.171C196.174 177.964 195.959 177.779 195.725 177.61C195.26 177.272 194.736 177.02 194.187 176.853C193.913 176.771 193.63 176.712 193.345 176.677C193.203 176.657 193.058 176.648 192.915 176.641L192.7 176.636H192.462L190.553 176.638L186.733 176.641L179.093 176.648L163.815 176.663L152.7 176.723L142.144 176.741L126.865 176.745L123.045 176.747H121.136H120.659H120.42C120.34 176.747 120.259 176.747 120.194 176.75C119.913 176.754 119.633 176.781 119.357 176.835C118.805 176.939 118.27 177.132 117.782 177.412C117.539 177.551 117.305 177.709 117.087 177.886C116.979 177.977 116.872 178.068 116.774 178.167C116.724 178.211 116.669 178.268 116.611 178.325L116.442 178.493L113.743 181.194L108.344 186.598L105.644 189.299L104.294 190.65L103.619 191.326C103.389 191.553 103.185 191.769 102.91 192.021C102.379 192.495 101.768 192.882 101.111 193.158C100.454 193.429 99.7511 193.601 99.0396 193.642C98.9516 193.651 98.8621 193.651 98.7726 193.653L98.6384 193.656H98.5191H98.0418H97.0873H95.1781L87.5387 193.659L56.9823 193.662L45.8681 193.636L42.0484 193.635L40.1392 193.633H39.1847H38.7074H38.5881L38.4553 193.63C38.3673 193.628 38.2779 193.627 38.1899 193.62C37.4814 193.578 36.7819 193.408 36.1256 193.137C35.4709 192.861 34.8638 192.478 34.3343 192.003C34.0599 191.753 33.8556 191.536 33.6259 191.31L32.9502 190.634L31.6004 189.283L20.802 178.474L15.4057 173.067L15.2372 172.899C15.1805 172.842 15.1268 172.788 15.0627 172.721C14.9389 172.594 14.8225 172.462 14.7092 172.326C14.4854 172.051 14.2856 171.759 14.1096 171.452C13.7546 170.839 13.5115 170.165 13.3788 169.47C13.3116 169.122 13.2773 168.769 13.2699 168.415L13.2669 168.282V168.163V167.924V167.447L13.2684 165.538L13.2833 150.259L13.2878 146.439V145.962C13.2878 145.807 13.2908 145.634 13.2848 145.5C13.2773 145.216 13.2505 144.931 13.1953 144.653C13.0849 144.096 12.8895 143.553 12.6017 143.063C12.4585 142.817 12.2974 142.582 12.1169 142.362L11.9782 142.201L11.8321 142.045C11.7306 141.94 11.6098 141.822 11.501 141.711L10.1512 140.36L7.45303 137.656L2.05678 132.249C1.84051 132.036 1.57801 131.768 1.36621 131.496C1.14696 131.222 0.951577 130.928 0.783037 130.619C0.445958 130.003 0.207319 129.332 0.0909816 128.638C0.0328131 128.292 0 127.942 0 127.59V126.632L0.00149296 124.723L0.0313225 74.1668L0.0730843 23.6105L0.0954559 19.7907C0.0969474 18.4141 0.568263 17.0314 1.43035 15.9561C1.53476 15.8203 1.65109 15.6921 1.76594 15.5653L1.94492 15.3803L2.11495 15.2133L2.79656 14.5451L4.16278 13.2117L6.90117 10.5494C10.5718 7.00408 14.2423 3.4737 17.9711 0Z" fill="#DAB46E"/>
</svg>
