<svg width="227" height="69" viewBox="0 0 227 69" fill="none" xmlns="http://www.w3.org/2000/svg">
<path d="M77.5735 31.8062H80.1843C80.3644 31.8062 80.5059 31.6648 80.5059 31.4847V26.3916C80.5059 26.2115 80.6474 26.0701 80.8274 26.0701H86.3064C86.4864 26.0701 86.6279 25.9286 86.6279 25.7485V23.4335C86.6279 23.2534 86.4864 23.1119 86.3064 23.1119H77.5735C77.3934 23.1119 77.252 23.2534 77.252 23.4335V31.4847C77.252 31.6648 77.3934 31.8062 77.5735 31.8062Z" fill="#dab46e"/>
<path d="M77.252 17.3114V19.6265C77.252 19.8065 77.3934 19.948 77.5735 19.948H87.2581C87.4382 19.948 87.5796 19.8065 87.5796 19.6265V17.3114C87.5796 17.1313 87.4382 16.9899 87.2581 16.9899H77.5735C77.3934 16.9899 77.252 17.1313 77.252 17.3114Z" fill="#dab46e"/>
<path d="M96.1709 31.4846V17.3114C96.1709 17.1313 96.3124 16.9899 96.4924 16.9899H106.036C106.216 16.9899 106.357 17.1313 106.357 17.3114V19.575C106.357 19.7551 106.216 19.8965 106.036 19.8965H99.7335C99.5534 19.8965 99.412 20.038 99.412 20.2181V22.5846C99.412 22.7646 99.5534 22.9061 99.7335 22.9061H104.145C104.325 22.9061 104.466 23.0476 104.466 23.2276V25.4784C104.466 25.6584 104.325 25.7999 104.145 25.7999H99.7335C99.5534 25.7999 99.412 25.9414 99.412 26.1214V28.5908C99.412 28.7709 99.5534 28.9124 99.7335 28.9124H106.151C106.331 28.9124 106.473 29.0538 106.473 29.2339V31.4846C106.473 31.6647 106.331 31.8062 106.151 31.8062H96.5053C96.3124 31.8062 96.1709 31.6647 96.1709 31.4846Z" fill="#dab46e"/>
<path d="M124.556 31.6647L121.572 27.2147C121.508 27.1246 121.418 27.0732 121.302 27.0732H119.232C119.052 27.0732 118.91 27.2147 118.91 27.3947V31.4975C118.91 31.6776 118.769 31.819 118.589 31.819H115.978C115.798 31.819 115.656 31.6776 115.656 31.4975V17.3114C115.656 17.1313 115.798 16.9899 115.978 16.9899H122.421C125.907 16.9899 128.003 18.829 128.003 21.8772V21.9158C128.003 24.1537 126.884 25.607 125.199 26.353C125.019 26.4301 124.942 26.6616 125.058 26.8288L128.106 31.2917C128.248 31.5104 128.093 31.7933 127.836 31.7933H124.814C124.711 31.8062 124.608 31.7547 124.556 31.6647ZM124.711 22.0573C124.711 20.6554 123.733 19.9351 122.151 19.9351H119.232C119.052 19.9351 118.91 20.0766 118.91 20.2567V23.8707C118.91 24.0508 119.052 24.1922 119.232 24.1922H122.216C123.798 24.1922 124.711 23.3434 124.711 22.0958V22.0573Z" fill="#dab46e"/>
<path d="M145.456 31.6647L142.472 27.2147C142.408 27.1246 142.318 27.0732 142.202 27.0732H140.131C139.951 27.0732 139.81 27.2147 139.81 27.3947V31.4975C139.81 31.6776 139.668 31.819 139.488 31.819H136.877C136.697 31.819 136.556 31.6776 136.556 31.4975V17.3114C136.556 17.1313 136.697 16.9899 136.877 16.9899H143.334C146.819 16.9899 148.915 18.829 148.915 21.8772V21.9158C148.915 24.1537 147.796 25.607 146.112 26.353C145.932 26.4301 145.854 26.6616 145.97 26.8288L149.018 31.2917C149.16 31.5104 149.005 31.7933 148.748 31.7933H145.726C145.623 31.8062 145.52 31.7547 145.456 31.6647ZM145.623 22.0573C145.623 20.6554 144.645 19.9351 143.064 19.9351H140.144C139.964 19.9351 139.822 20.0766 139.822 20.2567V23.8707C139.822 24.0508 139.964 24.1922 140.144 24.1922H143.128C144.71 24.1922 145.623 23.3434 145.623 22.0958V22.0573Z" fill="#dab46e"/>
<path d="M163.745 32.0377C159.771 32.0377 157.327 29.8127 157.327 25.4527V17.3114C157.327 17.1313 157.469 16.9899 157.649 16.9899H160.26C160.44 16.9899 160.581 17.1313 160.581 17.3114V25.3755C160.581 27.7934 161.79 29.041 163.771 29.041C165.764 29.041 166.96 27.832 166.96 25.4912V17.3243C166.96 17.1442 167.102 17.0027 167.282 17.0027H169.893C170.073 17.0027 170.214 17.1442 170.214 17.3243V25.3626C170.24 29.8384 167.732 32.0377 163.745 32.0377Z" fill="#dab46e"/>
<path d="M190.561 31.4846V23.2019C190.561 22.8804 190.149 22.7646 189.969 23.0219L186.394 28.4494H186.303L182.767 23.0862C182.587 22.8161 182.175 22.9447 182.175 23.2662V31.4846C182.175 31.6647 182.033 31.8062 181.853 31.8062H179.307C179.127 31.8062 178.985 31.6647 178.985 31.4846V17.3114C178.985 17.1313 179.127 16.9899 179.307 16.9899H182.316C182.432 16.9899 182.535 17.0413 182.587 17.1442L186.111 22.8161C186.239 23.0219 186.535 23.0219 186.651 22.8161L190.175 17.1442C190.239 17.0542 190.342 16.9899 190.445 16.9899H193.454C193.634 16.9899 193.776 17.1313 193.776 17.3114V31.4846C193.776 31.6647 193.634 31.8062 193.454 31.8062H190.856C190.702 31.8062 190.561 31.6647 190.561 31.4846Z" fill="#dab46e"/>
<path d="M87.5804 51.0211L80.8282 42.1467C80.7125 41.9924 80.4681 42.0824 80.4681 42.2625V50.8925C80.4681 51.0082 80.3781 51.0854 80.2752 51.0854H77.4585C77.3428 51.0854 77.2656 50.9954 77.2656 50.8925V36.4877C77.2656 36.372 77.3557 36.2948 77.4585 36.2948H80.1723C80.2366 36.2948 80.288 36.3205 80.3266 36.372L86.8474 44.9505C86.9631 45.1048 87.2075 45.0148 87.2075 44.8348V36.5006C87.2075 36.3848 87.2975 36.3077 87.4004 36.3077H90.217C90.3328 36.3077 90.4099 36.3977 90.4099 36.5006V50.9182C90.4099 51.0339 90.3199 51.1111 90.217 51.1111H87.7476C87.6833 51.0982 87.619 51.0725 87.5804 51.0211Z" fill="#dab46e"/>
<path d="M99.7725 50.9053V36.4877C99.7725 36.372 99.8625 36.2948 99.9654 36.2948H109.779C109.894 36.2948 109.972 36.3848 109.972 36.4877V38.9828C109.972 39.0986 109.882 39.1758 109.779 39.1758H103.206C103.091 39.1758 103.014 39.2658 103.014 39.3687V41.9795C103.014 42.0953 103.104 42.1725 103.206 42.1725H108.158C108.274 42.1725 108.351 42.2625 108.351 42.3654V44.8605C108.351 44.9762 108.261 45.0534 108.158 45.0534H103.206C103.091 45.0534 103.014 45.1434 103.014 45.2463V47.9987C103.014 48.1144 103.104 48.1916 103.206 48.1916H109.881C109.997 48.1916 110.074 48.2816 110.074 48.3845V50.8796C110.074 50.9954 109.984 51.0725 109.881 51.0725H99.9654C99.8496 51.0982 99.7725 51.0082 99.7725 50.9053Z" fill="#dab46e"/>
<path d="M126.074 39.4844V50.8925C126.074 51.0082 125.984 51.0854 125.881 51.0854H123.025C122.91 51.0854 122.833 50.9954 122.833 50.8925V39.4844C122.833 39.3687 122.743 39.2915 122.64 39.2915H118.524C118.408 39.2915 118.331 39.2015 118.331 39.0986V36.4877C118.331 36.372 118.421 36.2948 118.524 36.2948H130.395C130.511 36.2948 130.588 36.3848 130.588 36.4877V39.0986C130.588 39.2143 130.498 39.2915 130.395 39.2915H126.279C126.151 39.2915 126.074 39.3815 126.074 39.4844Z" fill="#dab46e"/>
<path d="M155.578 51.2012H153.032C152.942 51.2012 152.878 51.1498 152.839 51.0726L149.727 42.0568C149.662 41.8767 149.418 41.8767 149.354 42.0568L146.241 51.0726C146.215 51.1498 146.138 51.2012 146.048 51.2012H143.502C143.412 51.2012 143.334 51.1497 143.309 51.0597L138.396 36.5521C138.357 36.4235 138.447 36.2949 138.589 36.2949H141.65C141.74 36.2949 141.817 36.3463 141.843 36.4363L144.685 45.7222C144.736 45.9023 145.006 45.9152 145.058 45.7222L148.145 36.3849C148.17 36.3077 148.248 36.2434 148.338 36.2434H150.845C150.936 36.2434 151.013 36.2949 151.038 36.3849L154.125 45.7222C154.189 45.9023 154.447 45.9023 154.511 45.7222L157.353 36.4363C157.379 36.3463 157.456 36.2949 157.546 36.2949H160.53C160.672 36.2949 160.762 36.4235 160.723 36.5521L155.797 51.0726C155.733 51.1498 155.656 51.2012 155.578 51.2012Z" fill="#dab46e"/>
<path d="M175.591 51.3555C171.025 51.3555 167.745 47.9472 167.745 43.7416V43.703C167.745 39.4973 171.063 36.0376 175.642 36.0376C180.208 36.0376 183.487 39.4459 183.487 43.6515V43.6901C183.487 47.9086 180.156 51.3555 175.591 51.3555ZM180.079 43.6901C180.079 41.1564 178.214 39.0343 175.591 39.0343C172.967 39.0343 171.141 41.105 171.141 43.6515V43.6901C171.141 46.2238 173.005 48.3459 175.629 48.3459C178.253 48.3459 180.079 46.2753 180.079 43.7287V43.6901Z" fill="#dab46e"/>
<path d="M201.828 51.0082L198.767 46.4424C198.728 46.391 198.664 46.3524 198.599 46.3524H196.452C196.336 46.3524 196.259 46.4424 196.259 46.5453V50.8925C196.259 51.0082 196.169 51.0854 196.066 51.0854H193.21C193.095 51.0854 193.018 50.9954 193.018 50.8925V36.4877C193.018 36.372 193.108 36.2948 193.21 36.2948H199.667C203.152 36.2948 205.249 38.134 205.249 41.1821V41.2207C205.249 43.51 204.065 44.9891 202.303 45.7222C202.188 45.7736 202.136 45.9151 202.213 46.018L205.48 50.7896C205.57 50.9182 205.48 51.0982 205.313 51.0982H201.982C201.931 51.0982 201.866 51.0597 201.828 51.0082ZM201.956 41.3365C201.956 39.9346 200.979 39.2143 199.397 39.2143H196.464C196.349 39.2143 196.271 39.3044 196.271 39.4073V43.2657C196.271 43.3814 196.362 43.4586 196.464 43.4586H199.461C201.043 43.4586 201.956 42.6097 201.956 41.3622V41.3365Z" fill="#dab46e"/>
<path d="M223.229 51.0211L218.83 44.9891C218.753 44.8862 218.612 44.8733 218.522 44.9634L217.03 46.5067C216.991 46.5453 216.978 46.5968 216.978 46.6482V50.8925C216.978 51.0082 216.888 51.0854 216.785 51.0854H213.93C213.814 51.0854 213.737 50.9954 213.737 50.8925V36.4877C213.737 36.372 213.827 36.2948 213.93 36.2948H216.785C216.901 36.2948 216.978 36.3848 216.978 36.4877V42.2625C216.978 42.4425 217.197 42.5326 217.326 42.404L222.933 36.3591C222.972 36.3205 223.023 36.2948 223.075 36.2948H226.457C226.637 36.2948 226.727 36.5006 226.599 36.6292L221.004 42.4554C220.94 42.5197 220.927 42.6355 220.991 42.7126L226.959 50.7896C227.062 50.9182 226.959 51.1111 226.804 51.1111H223.383C223.319 51.0982 223.268 51.0725 223.229 51.0211Z" fill="#dab46e"/>
<path d="M49.3105 11.4209L41.5165 6.91942L7.5239 26.533V20.4239L36.2176 3.85841L29.5297 0L0 17.0542V20.7325V24.7581V30.8802V39.8831V51.1497L3.34396 53.0789L7.5239 50.661V35.536L49.3105 11.4209Z" fill="#dab46e"/>
<path d="M49.3105 11.4209L41.5165 6.91942L7.5239 26.533V20.4239L36.2176 3.85841L29.5297 0L0 17.0542V20.7325V24.7581V30.8802V39.8831V51.1497L3.34396 53.0789L7.5239 50.661V35.536L49.3105 11.4209Z" fill="#dab46e"/>
<path d="M12.6816 38.687L46.3784 19.2278V28.2307L12.6816 47.69V38.687Z" fill="#dab46e"/>
<path d="M12.6816 38.687L46.3784 19.2278V28.2307L12.6816 47.69V38.687Z" fill="#dab46e"/>
<path d="M12.681 53.812L46.3779 34.3656V43.3557L16.4366 60.6543L12.681 58.4807L8.64258 56.1399L12.681 53.812Z" fill="#dab46e"/>
<path d="M12.681 53.812L46.3779 34.3656V43.3557L16.4366 60.6543L12.681 58.4807L8.64258 56.1399L12.681 53.812Z" fill="#dab46e"/>
<path d="M54.609 14.4819L51.5352 16.2568V25.2469V46.4939L21.7354 63.7024L29.5293 68.2039L59.0719 51.1497V47.3813V42.1596V20.8998V17.0542L54.609 14.4819Z" fill="#dab46e"/>
<path d="M54.609 14.4819L51.5352 16.2568V25.2469V46.4939L21.7354 63.7024L29.5293 68.2039L59.0719 51.1497V47.3813V42.1596V20.8998V17.0542L54.609 14.4819Z" fill="#dab46e"/>
</svg>
